<?xml version="1.0" standalone="no"?><!DOCTYPE svg PUBLIC "-//W3C//DTD SVG 1.1//EN" "http://www.w3.org/Graphics/SVG/1.1/DTD/svg11.dtd"><svg width="100%" height="100%" viewBox="0 0 460 135" version="1.1" xmlns="http://www.w3.org/2000/svg" xmlns:xlink="http://www.w3.org/1999/xlink" xml:space="preserve" style="fill-rule:evenodd;clip-rule:evenodd;stroke-linejoin:round;stroke-miterlimit:1.41421;"><clipPath id="_clip1"><rect id="Logo" x="0" y="0" width="460" height="135"/></clipPath><g clip-path="url(#_clip1)"><path d="M51.339,19.148l0,115.852l-20.257,0l0,-115.852l-30.864,0l0,-19.148l81.898,0l0,19.148l-30.777,0Z" style="fill:#fff;fill-rule:nonzero;"/><path d="M101.476,0l0,79.866c0,11.394 1.883,19.724 5.651,24.991c5.622,7.614 13.533,11.422 23.734,11.422c10.259,0 18.2,-3.808 23.822,-11.422c3.767,-5.096 5.651,-13.426 5.651,-24.991l0,-79.866l20.257,0l0,85.363c0,13.969 -4.405,25.477 -13.215,34.522c-9.911,10.077 -22.083,15.115 -36.515,15.115c-14.432,0 -26.574,-5.038 -36.428,-15.115c-8.809,-9.045 -13.214,-20.553 -13.214,-34.522l0,-85.363l20.257,0Z" style="fill:#fff;fill-rule:nonzero;"/><path d="M206.058,77.468l41.557,57.532l-24.778,0l-38.341,-55.259l-3.651,0l-20.257,-0.054l0,-79.687l23.735,0c17.735,0 30.544,3.352 38.427,10.055c8.694,7.461 13.041,17.312 13.041,29.553c0,9.56 -2.724,17.779 -8.172,24.657c-5.449,6.878 -12.636,11.279 -21.561,13.203ZM180.845,61.992l6.433,0c19.185,0 28.778,-7.374 28.778,-22.122c0,-13.814 -9.332,-20.722 -27.995,-20.722l-7.216,0l0,42.844Z" style="fill:#fff;fill-rule:nonzero;"/><path d="M247.982,135l0,-135l20.17,0c8.984,0 16.142,0.699 21.474,2.098c5.391,1.399 9.94,3.76 13.65,7.083c3.767,3.439 6.752,7.723 8.955,12.853c2.26,5.188 3.39,10.434 3.39,15.738c0,9.676 -3.68,17.866 -11.041,24.569c7.129,2.449 12.751,6.733 16.866,12.853c4.173,6.062 6.26,13.116 6.26,21.16c0,10.55 -3.709,19.469 -11.128,26.755c-4.463,4.488 -9.477,7.607 -15.041,9.355c-6.086,1.691 -13.707,2.536 -22.865,2.536l-30.69,0ZM268.239,57.97l6.347,0c7.535,0 13.055,-1.676 16.562,-5.028c3.506,-3.352 5.26,-8.292 5.26,-14.82c0,-6.354 -1.797,-11.177 -5.391,-14.471c-3.593,-3.293 -8.81,-4.94 -15.649,-4.94l-7.129,0l0,39.259ZM268.239,115.852l12.519,0c9.158,0 15.881,-1.807 20.171,-5.421c4.52,-3.906 6.781,-8.86 6.781,-14.864c0,-5.829 -2.174,-10.726 -6.521,-14.689c-4.231,-3.906 -11.795,-5.859 -22.691,-5.859l-10.259,0l0,40.833Z" style="fill:#fff;fill-rule:nonzero;"/><path d="M394.157,-0.215c-1.105,-0.027 -2.209,-0.027 -3.314,0l-1.992,2.966c-0.385,0.022 -0.769,0.047 -1.154,0.075l-2.363,-2.68c-1.098,0.118 -2.193,0.262 -3.284,0.433l-1.589,3.2c-0.378,0.072 -0.756,0.147 -1.133,0.226l-2.693,-2.349c-1.074,0.26 -2.141,0.546 -3.2,0.857l-1.158,3.381c-0.365,0.12 -0.73,0.244 -1.094,0.371l-2.976,-1.977c-1.03,0.398 -2.051,0.82 -3.061,1.268l-0.706,3.502c-0.347,0.168 -0.693,0.338 -1.037,0.511l-3.208,-1.571c-0.97,0.528 -1.927,1.081 -2.869,1.656l-0.244,3.565c-0.322,0.211 -0.642,0.425 -0.96,0.642l-3.387,-1.14c-0.892,0.651 -1.769,1.324 -2.628,2.017l0.224,3.566c-0.292,0.252 -0.582,0.506 -0.869,0.762l-3.506,-0.688c-0.8,0.762 -1.581,1.543 -2.343,2.343l0.688,3.506c-0.257,0.288 -0.511,0.577 -0.762,0.869l-3.566,-0.224c-0.693,0.859 -1.366,1.736 -2.017,2.628l1.14,3.387c-0.217,0.318 -0.431,0.638 -0.642,0.96l-3.565,0.244c-0.575,0.942 -1.128,1.899 -1.656,2.869l1.571,3.209c-0.173,0.343 -0.343,0.689 -0.511,1.036l-3.502,0.706c-0.448,1.01 -0.871,2.031 -1.268,3.061l1.977,2.976c-0.127,0.364 -0.251,0.729 -0.371,1.094l-3.381,1.158c-0.312,1.06 -0.597,2.127 -0.857,3.2l2.349,2.693c-0.079,0.377 -0.154,0.755 -0.226,1.133l-3.2,1.589c-0.171,1.091 -0.315,2.186 -0.433,3.285l2.68,2.363c-0.028,0.384 -0.053,0.768 -0.075,1.153l-2.966,1.993c-0.027,1.104 -0.027,2.208 0,3.313l2.966,1.993c0.022,0.384 0.047,0.769 0.075,1.153l-2.68,2.363c0.118,1.098 0.262,2.193 0.433,3.284l3.2,1.589c0.072,0.379 0.147,0.756 0.226,1.133l-2.349,2.693c0.26,1.074 0.545,2.141 0.857,3.2l3.381,1.158c0.12,0.366 0.244,0.73 0.371,1.094l-1.977,2.976c0.397,1.031 0.82,2.051 1.268,3.061l3.502,0.706c0.168,0.347 0.338,0.693 0.511,1.037l-1.571,3.208c0.528,0.97 1.081,1.927 1.656,2.87l3.565,0.243c0.211,0.322 0.425,0.642 0.642,0.961l-1.14,3.386c0.651,0.892 1.324,1.769 2.017,2.628l3.566,-0.224c0.251,0.292 0.505,0.582 0.762,0.869l-0.688,3.506c0.762,0.8 1.543,1.581 2.343,2.343l3.506,-0.688c0.287,0.257 0.577,0.511 0.869,0.762l-0.224,3.566c0.859,0.694 1.736,1.366 2.628,2.017l3.387,-1.14c0.318,0.217 0.638,0.431 0.96,0.642l0.244,3.565c0.942,0.576 1.899,1.128 2.869,1.656l3.208,-1.571c0.344,0.173 0.69,0.344 1.037,0.511l0.706,3.502c1.01,0.448 2.031,0.871 3.061,1.268l2.976,-1.977c0.364,0.127 0.729,0.251 1.094,0.371l1.158,3.381c1.059,0.312 2.126,0.598 3.2,0.857l2.693,-2.348c0.377,0.078 0.755,0.153 1.133,0.225l1.589,3.2c1.091,0.171 2.186,0.315 3.284,0.433l2.363,-2.68c0.385,0.028 0.769,0.054 1.154,0.075l1.992,2.966c1.105,0.027 2.209,0.027 3.314,0l1.992,-2.966c0.385,-0.021 0.769,-0.047 1.154,-0.075l2.363,2.68c1.098,-0.118 2.193,-0.262 3.284,-0.433l1.589,-3.2c0.378,-0.072 0.756,-0.147 1.133,-0.225l2.693,2.348c1.074,-0.259 2.141,-0.545 3.2,-0.857l1.158,-3.381c0.365,-0.12 0.73,-0.244 1.094,-0.371l2.976,1.977c1.03,-0.397 2.051,-0.82 3.061,-1.268l0.706,-3.502c0.347,-0.167 0.693,-0.338 1.037,-0.511l3.208,1.571c0.97,-0.528 1.927,-1.08 2.869,-1.656l0.244,-3.565c0.322,-0.211 0.642,-0.425 0.96,-0.642l3.387,1.14c0.892,-0.651 1.769,-1.323 2.628,-2.017l-0.224,-3.566c0.292,-0.251 0.582,-0.505 0.869,-0.762l3.506,0.688c0.8,-0.762 1.581,-1.543 2.343,-2.343l-0.688,-3.506c0.257,-0.287 0.511,-0.577 0.762,-0.869l3.566,0.224c0.693,-0.859 1.366,-1.736 2.017,-2.628l-1.14,-3.386c0.217,-0.319 0.431,-0.639 0.642,-0.961l3.565,-0.243c0.575,-0.943 1.128,-1.9 1.656,-2.87l-1.571,-3.208c0.173,-0.344 0.343,-0.69 0.511,-1.037l3.502,-0.706c0.448,-1.01 0.871,-2.03 1.268,-3.061l-1.977,-2.976c0.127,-0.364 0.251,-0.728 0.371,-1.094l3.381,-1.158c0.312,-1.059 0.597,-2.126 0.857,-3.2l-2.349,-2.693c0.079,-0.377 0.154,-0.754 0.226,-1.133l3.2,-1.589c0.171,-1.091 0.315,-2.186 0.433,-3.284l-2.68,-2.363c0.028,-0.384 0.053,-0.769 0.075,-1.153l2.966,-1.993c0.027,-1.105 0.027,-2.209 0,-3.313l-2.966,-1.993c-0.022,-0.385 -0.047,-0.769 -0.075,-1.153l2.68,-2.363c-0.118,-1.099 -0.262,-2.194 -0.433,-3.285l-3.2,-1.589c-0.072,-0.378 -0.147,-0.756 -0.226,-1.133l2.349,-2.693c-0.26,-1.073 -0.545,-2.14 -0.857,-3.2l-3.381,-1.158c-0.12,-0.365 -0.244,-0.73 -0.371,-1.094l1.977,-2.976c-0.397,-1.03 -0.82,-2.051 -1.268,-3.061l-3.502,-0.706c-0.168,-0.347 -0.338,-0.693 -0.511,-1.036l1.571,-3.209c-0.528,-0.97 -1.081,-1.927 -1.656,-2.869l-3.565,-0.244c-0.211,-0.322 -0.425,-0.642 -0.642,-0.96l1.14,-3.387c-0.651,-0.892 -1.324,-1.769 -2.017,-2.628l-3.566,0.224c-0.251,-0.292 -0.505,-0.581 -0.762,-0.869l0.688,-3.506c-0.762,-0.8 -1.543,-1.581 -2.343,-2.343l-3.506,0.688c-0.287,-0.256 -0.577,-0.51 -0.869,-0.762l0.224,-3.566c-0.859,-0.693 -1.736,-1.366 -2.628,-2.017l-3.387,1.14c-0.318,-0.217 -0.638,-0.431 -0.96,-0.642l-0.244,-3.565c-0.942,-0.575 -1.899,-1.128 -2.869,-1.656l-3.208,1.571c-0.344,-0.173 -0.69,-0.343 -1.037,-0.511l-0.706,-3.502c-1.01,-0.448 -2.031,-0.87 -3.061,-1.268l-2.976,1.977c-0.364,-0.127 -0.729,-0.251 -1.094,-0.371l-1.158,-3.381c-1.059,-0.311 -2.126,-0.597 -3.2,-0.857l-2.693,2.349c-0.377,-0.079 -0.755,-0.154 -1.133,-0.226l-1.589,-3.2c-1.091,-0.171 -2.186,-0.315 -3.284,-0.433l-2.363,2.68c-0.385,-0.028 -0.769,-0.053 -1.154,-0.075l-1.992,-2.966ZM386.118,107.647l-2.141,15.04l5.153,0.733l-0.354,2.486l-7.797,-1.11l2.494,-17.525l2.645,0.376ZM394.427,108.228l1.24,10.59c0.176,1.511 0.552,2.586 1.128,3.227c0.854,0.924 1.949,1.307 3.286,1.151c1.343,-0.158 2.324,-0.784 2.942,-1.88c0.415,-0.734 0.532,-1.867 0.352,-3.4l-1.239,-10.59l2.653,-0.311l1.325,11.319c0.217,1.852 -0.181,3.445 -1.195,4.78c-1.142,1.488 -2.658,2.343 -4.548,2.564c-1.89,0.221 -3.559,-0.261 -5.006,-1.446c-1.294,-1.064 -2.049,-2.522 -2.266,-4.374l-1.325,-11.319l2.653,-0.311ZM379.702,106.978l-1.076,2.975c-1.013,-1.74 -2.295,-2.89 -3.848,-3.452c-1.711,-0.618 -3.374,-0.525 -4.99,0.281c-1.621,0.795 -2.751,2.077 -3.39,3.845c-0.632,1.747 -0.575,3.433 0.169,5.06c0.745,1.627 1.973,2.749 3.683,3.368c0.884,0.32 1.688,0.447 2.41,0.383c0.397,-0.019 0.824,-0.083 1.283,-0.194c0.458,-0.11 0.955,-0.264 1.489,-0.461l-1.095,3.03c-1.731,0.292 -3.388,0.152 -4.969,-0.42c-2.379,-0.86 -4.109,-2.424 -5.191,-4.693c-1.069,-2.28 -1.176,-4.603 -0.321,-6.968c0.767,-2.12 2.152,-3.757 4.154,-4.91c2.46,-1.411 5.06,-1.62 7.798,-0.63c1.495,0.541 2.793,1.469 3.894,2.786ZM415.479,121.617l-8.185,-15.696l2.358,-1.229c1.051,-0.548 1.93,-0.903 2.638,-1.066c0.715,-0.166 1.391,-0.169 2.026,-0.009c0.649,0.17 1.257,0.486 1.826,0.949c0.579,0.465 1.029,1.006 1.351,1.623c0.586,1.125 0.653,2.301 0.198,3.529c0.982,-0.15 1.899,0.006 2.752,0.466c0.855,0.451 1.527,1.143 2.015,2.079c0.639,1.226 0.746,2.489 0.321,3.789c-0.25,0.794 -0.647,1.462 -1.192,2.005c-0.609,0.567 -1.449,1.13 -2.52,1.689l-3.588,1.871ZM416.687,118.155l1.463,-0.763c1.071,-0.558 1.748,-1.178 2.03,-1.86c0.292,-0.73 0.256,-1.444 -0.108,-2.142c-0.354,-0.677 -0.905,-1.114 -1.653,-1.31c-0.732,-0.196 -1.735,0.038 -3.009,0.703l-1.199,0.625l2.476,4.747ZM413.177,111.426l0.742,-0.387c0.881,-0.459 1.425,-0.991 1.632,-1.594c0.207,-0.604 0.112,-1.285 -0.284,-2.044c-0.385,-0.739 -0.887,-1.19 -1.507,-1.354c-0.62,-0.164 -1.33,-0.037 -2.13,0.38l-0.833,0.435l2.38,4.564ZM410.444,97.76l-12.717,-13.127c-3.409,1.026 -7.045,1.026 -10.454,0l-12.717,13.127c5.262,3.105 11.397,4.887 17.944,4.887c6.547,0 12.682,-1.782 17.944,-4.887ZM357.948,59.62c-0.544,2.462 -0.83,5.02 -0.83,7.645c0,10.534 4.613,19.999 11.928,26.483l8.551,-16.145c-2.029,-2.925 -3.152,-6.383 -3.23,-9.942l-16.419,-8.041ZM427.052,59.62l-16.419,8.041c-0.078,3.559 -1.201,7.017 -3.23,9.942l8.551,16.145c7.315,-6.484 11.928,-15.949 11.928,-26.483c0,-2.625 -0.286,-5.183 -0.83,-7.645ZM395.907,32.045l2.573,18.097c3.361,1.174 6.302,3.311 8.457,6.144l18.009,-3.145c-5.025,-11.516 -16.005,-19.848 -29.039,-21.096ZM389.093,32.045c-13.034,1.248 -24.014,9.579 -29.039,21.096l18.009,3.145c2.155,-2.833 5.096,-4.97 8.457,-6.144l2.573,-18.097ZM411.359,22.659l2.327,9.029l-3.039,-1.2l-2.042,-8.596l-0.448,-0.177l-2.661,6.74l-2.484,-0.981l6.499,-16.465l2.912,1.149c2.175,0.859 3.585,1.888 4.229,3.087c0.707,1.331 0.766,2.743 0.177,4.236c-0.46,1.166 -1.19,2.036 -2.19,2.611c-0.999,0.576 -2.093,0.764 -3.28,0.567ZM375.908,11.127l1.155,2.946c-1.908,-0.639 -3.631,-0.657 -5.168,-0.054c-1.694,0.664 -2.882,1.832 -3.565,3.503c-0.693,1.667 -0.696,3.376 -0.01,5.127c0.678,1.729 1.834,2.959 3.467,3.69c1.633,0.73 3.296,0.764 4.989,0.1c0.876,-0.343 1.563,-0.777 2.064,-1.302c0.286,-0.276 0.564,-0.607 0.836,-0.993c0.271,-0.385 0.543,-0.828 0.815,-1.329l1.176,2.999c-1.108,1.362 -2.445,2.35 -4.01,2.964c-2.356,0.924 -4.688,0.89 -6.998,-0.101c-2.308,-1.008 -3.921,-2.682 -4.838,-5.024c-0.823,-2.099 -0.863,-4.242 -0.12,-6.43c0.918,-2.683 2.733,-4.556 5.444,-5.619c1.48,-0.581 3.068,-0.739 4.763,-0.477ZM401.104,26.948l-8.449,-18.813l-8.759,18.813l2.877,0l1.972,-4.299l7.578,0l1.858,4.299l2.923,0ZM409.012,19.55l0.789,0.312c2.353,0.929 3.884,0.494 4.594,-1.305c0.666,-1.685 -0.146,-2.979 -2.436,-3.883l-0.885,-0.349l-2.062,5.225ZM395.234,20.138l-5.377,0l2.752,-6.019l2.625,6.019Z" style="fill:#fff;"/></g></svg>